<svg width="10" height="12" viewBox="0 0 10 12" fill="none" xmlns="http://www.w3.org/2000/svg">
<path d="M5 6.11465C5.34375 6.11465 5.63813 5.9948 5.88313 5.75511C6.12813 5.51541 6.25042 5.22762 6.25 4.89172C6.25 4.55541 6.1275 4.26741 5.8825 4.02772C5.6375 3.78803 5.34333 3.66838 5 3.66879C4.65625 3.66879 4.36188 3.78864 4.11687 4.02833C3.87187 4.26803 3.74958 4.55582 3.75 4.89172C3.75 5.22803 3.8725 5.51603 4.1175 5.75572C4.3625 5.99541 4.65667 6.11506 5 6.11465ZM5 12C4.91667 12 4.83333 11.9847 4.75 11.9541C4.66667 11.9236 4.59375 11.8828 4.53125 11.8318C3.01042 10.5172 1.875 9.29671 1.125 8.1704C0.375 7.04408 0 5.99195 0 5.01401C0 3.48535 0.502708 2.26752 1.50813 1.36051C2.51354 0.453503 3.6775 0 5 0C6.32292 0 7.48708 0.453503 8.4925 1.36051C9.49792 2.26752 10.0004 3.48535 10 5.01401C10 5.99236 9.625 7.04469 8.875 8.17101C8.125 9.29733 6.98958 10.5176 5.46875 11.8318C5.40625 11.8828 5.33333 11.9236 5.25 11.9541C5.16667 11.9847 5.08333 12 5 12Z" fill="black"/>
</svg>
