<svg width="12" height="12" viewBox="0 0 12 12" fill="none" xmlns="http://www.w3.org/2000/svg">
<path d="M11.3 12C9.86667 12 8.46956 11.6804 7.10867 11.0413C5.74778 10.4022 4.54222 9.55778 3.492 8.508C2.44178 7.45822 1.59733 6.25267 0.958667 4.89133C0.32 3.53 0.000444444 2.13289 0 0.7C0 0.5 0.0666666 0.333333 0.2 0.2C0.333333 0.0666666 0.5 0 0.7 0H3.4C3.55556 0 3.69444 0.0499999 3.81667 0.15C3.93889 0.25 4.01111 0.377778 4.03333 0.533333L4.46667 2.86667C4.48889 3.02222 4.486 3.164 4.458 3.292C4.43 3.42 4.36622 3.53378 4.26667 3.63333L2.66667 5.26667C3.13333 6.06667 3.71667 6.81667 4.41667 7.51667C5.11667 8.21667 5.88889 8.82222 6.73333 9.33333L8.3 7.76667C8.4 7.66667 8.53067 7.59178 8.692 7.542C8.85333 7.49222 9.01156 7.47822 9.16667 7.5L11.4667 7.96667C11.6222 8 11.75 8.07511 11.85 8.192C11.95 8.30889 12 8.44489 12 8.6V11.3C12 11.5 11.9333 11.6667 11.8 11.8C11.6667 11.9333 11.5 12 11.3 12Z" fill="black"/>
</svg>
