<svg width="12" height="12" viewBox="0 0 12 12" fill="none" xmlns="http://www.w3.org/2000/svg">
<path d="M6 12C5.18 12 4.405 11.8424 3.675 11.5272C2.945 11.212 2.3074 10.782 1.7622 10.2372C1.2174 9.6924 0.787401 9.055 0.472201 8.325C0.157001 7.595 -0.00039924 6.82 7.60456e-07 6C7.60456e-07 5.17 0.157601 4.3924 0.472801 3.6672C0.788001 2.942 1.218 2.3072 1.7628 1.7628C2.3076 1.2176 2.9448 0.7876 3.6744 0.4728C4.404 0.158 5.1792 0.0004 6 0C6.83 0 7.6076 0.1576 8.3328 0.4728C9.058 0.788 9.6928 1.218 10.2372 1.7628C10.7824 2.3076 11.2124 2.9426 11.5272 3.6678C11.842 4.393 11.9996 5.1704 12 6V6.87C12 7.46 11.7976 7.9626 11.3928 8.3778C10.988 8.793 10.4904 9.0004 9.9 9C9.54 9 9.205 8.92 8.895 8.76C8.585 8.6 8.33 8.39 8.13 8.13C7.86 8.4 7.5424 8.6126 7.1772 8.7678C6.812 8.923 6.4196 9.0004 6 9C5.17 9 4.4624 8.7074 3.8772 8.1222C3.292 7.537 2.9996 6.8296 3 6C3 5.17 3.2926 4.4624 3.8778 3.8772C4.463 3.292 5.1704 2.9996 6 3C6.83 3 7.5376 3.2926 8.1228 3.8778C8.708 4.463 9.0004 5.1704 9 6V6.87C9 7.16 9.09 7.3874 9.27 7.5522C9.45 7.717 9.66 7.7996 9.9 7.8C10.14 7.8 10.35 7.7174 10.53 7.5522C10.71 7.387 10.8 7.1596 10.8 6.87V6C10.8 4.69 10.3274 3.5624 9.3822 2.6172C8.437 1.672 7.3096 1.1996 6 1.2C4.69 1.2 3.5624 1.6726 2.6172 2.6178C1.672 3.563 1.1996 4.6904 1.2 6C1.2 7.31 1.6726 8.4376 2.6178 9.3828C3.563 10.328 4.6904 10.8004 6 10.8H9V12H6ZM6 7.8C6.5 7.8 6.925 7.625 7.275 7.275C7.625 6.925 7.8 6.5 7.8 6C7.8 5.5 7.625 5.075 7.275 4.725C6.925 4.375 6.5 4.2 6 4.2C5.5 4.2 5.075 4.375 4.725 4.725C4.375 5.075 4.2 5.5 4.2 6C4.2 6.5 4.375 6.925 4.725 7.275C5.075 7.625 5.5 7.8 6 7.8Z" fill="black"/>
</svg>
