<svg width="70" height="90" viewBox="0 0 70 90" fill="none" xmlns="http://www.w3.org/2000/svg">
<path d="M21.3043 29.3478C21.3043 28.8289 21.4647 28.3313 21.75 27.9643C22.0354 27.5974 22.4225 27.3913 22.8261 27.3913H47.1739C47.5775 27.3913 47.9646 27.5974 48.2499 27.9643C48.5353 28.3313 48.6956 28.8289 48.6956 29.3478C48.6956 29.8667 48.5353 30.3644 48.2499 30.7313C47.9646 31.0982 47.5775 31.3043 47.1739 31.3043H22.8261C22.4225 31.3043 22.0354 31.0982 21.75 30.7313C21.4647 30.3644 21.3043 29.8667 21.3043 29.3478ZM22.8261 46.9565H47.1739C47.5775 46.9565 47.9646 46.7504 48.2499 46.3835C48.5353 46.0165 48.6956 45.5189 48.6956 45C48.6956 44.4811 48.5353 43.9834 48.2499 43.6165C47.9646 43.2496 47.5775 43.0435 47.1739 43.0435H22.8261C22.4225 43.0435 22.0354 43.2496 21.75 43.6165C21.4647 43.9834 21.3043 44.4811 21.3043 45C21.3043 45.5189 21.4647 46.0165 21.75 46.3835C22.0354 46.7504 22.4225 46.9565 22.8261 46.9565ZM35 58.6956H22.8261C22.4225 58.6956 22.0354 58.9018 21.75 59.2687C21.4647 59.6356 21.3043 60.1333 21.3043 60.6522C21.3043 61.1711 21.4647 61.6687 21.75 62.0356C22.0354 62.4026 22.4225 62.6087 22.8261 62.6087H35C35.4036 62.6087 35.7906 62.4026 36.076 62.0356C36.3614 61.6687 36.5217 61.1711 36.5217 60.6522C36.5217 60.1333 36.3614 59.6356 36.076 59.2687C35.7906 58.9018 35.4036 58.6956 35 58.6956ZM70 5.86956V59.0331C70.0015 59.8041 69.884 60.5678 69.6541 61.2798C69.4242 61.9918 69.0866 62.6381 68.6609 63.181L49.1407 88.2831C48.7178 88.829 48.215 89.2617 47.6613 89.5564C47.1075 89.8511 46.5139 90.0018 45.9147 90H4.56522C3.35445 90 2.19326 89.3816 1.33712 88.2808C0.480976 87.1801 0 85.6871 0 84.1304V5.86956C0 4.31286 0.480976 2.81991 1.33712 1.71915C2.19326 0.618398 3.35445 0 4.56522 0H65.4348C66.6455 0 67.8067 0.618398 68.6629 1.71915C69.519 2.81991 70 4.31286 70 5.86956ZM4.56522 86.0869H45.6522V60.6522C45.6522 60.1333 45.8125 59.6356 46.0979 59.2687C46.3833 58.9018 46.7703 58.6956 47.1739 58.6956H66.9565V5.86956C66.9565 5.35066 66.7962 4.85301 66.5108 4.48609C66.2254 4.11918 65.8384 3.91304 65.4348 3.91304H4.56522C4.16163 3.91304 3.77457 4.11918 3.48918 4.48609C3.2038 4.85301 3.04348 5.35066 3.04348 5.86956V84.1304C3.04348 84.6493 3.2038 85.147 3.48918 85.5139C3.77457 85.8808 4.16163 86.0869 4.56522 86.0869ZM64.8071 62.6087H48.6956V83.3234L64.8071 62.6087Z" fill="white"/>
</svg>
