<svg width="40" height="41" viewBox="0 0 40 41" fill="none" xmlns="http://www.w3.org/2000/svg">
    <path fill-rule="evenodd" clip-rule="evenodd"
        d="M15.451 0H24.5479V0.834637C25.2506 8.64201 27.5748 10.0554 34.6658 6.74759L35.4504 6.29502L39.9989 14.1729L39.5554 14.4287C32.8419 19.0909 32.7725 21.8302 39.4803 26.4627L40 26.7629L39.9773 26.8016L35.4516 34.6408L34.5851 34.1405C27.3588 30.8361 25.1562 32.4621 24.5786 40.9631L24.5479 40.5913V40.9358H15.451V39.61C14.6891 32.0755 12.2444 30.9225 5.04193 34.3565L4.54843 34.6408L0 26.7629L1.17691 26.083C7.13421 21.7824 7.13193 19.0954 1.05978 14.7858L0 14.1729L4.54843 6.29502L4.802 6.44171C12.1591 9.96333 14.6948 8.90468 15.451 1.3668V0ZM25.685 20.4679C25.685 21.9758 25.086 23.422 24.0197 24.4882C22.9535 25.5544 21.5073 26.1535 19.9994 26.1535C18.4915 26.1535 17.0454 25.5544 15.9792 24.4882C14.9129 23.422 14.3139 21.9758 14.3139 20.4679C14.3139 18.96 14.9129 17.5139 15.9792 16.4476C17.0454 15.3814 18.4915 14.7824 19.9994 14.7824C21.5073 14.7824 22.9535 15.3814 24.0197 16.4476C25.086 17.5139 25.685 18.96 25.685 20.4679ZM29.0963 20.4679C29.0963 22.8806 28.1379 25.1944 26.4319 26.9004C24.7259 28.6064 22.4121 29.5648 19.9994 29.5648C17.5868 29.5648 15.273 28.6064 13.567 26.9004C11.861 25.1944 10.9026 22.8806 10.9026 20.4679C10.9026 18.0553 11.861 15.7415 13.567 14.0355C15.273 12.3295 17.5868 11.3711 19.9994 11.3711C22.4121 11.3711 24.7259 12.3295 26.4319 14.0355C28.1379 15.7415 29.0963 18.0553 29.0963 20.4679ZM31.3705 20.4679C31.3705 26.7482 26.2797 31.839 19.9994 31.839C13.7192 31.839 8.62836 26.7482 8.62836 20.4679C8.62836 14.1877 13.7192 9.09685 19.9994 9.09685C26.2797 9.09685 31.3705 14.1877 31.3705 20.4679Z"
        fill="#8671ff" />
</svg>