<svg width="40" height="48" viewBox="0 0 40 48" fill="none" xmlns="http://www.w3.org/2000/svg">
<path d="M26.4028 4.34492L28.4682 0.618581C28.4946 0.570833 28.5113 0.518349 28.5175 0.464126C28.5236 0.409903 28.519 0.355003 28.5039 0.30256C28.4888 0.250118 28.4636 0.201159 28.4296 0.158481C28.3955 0.115802 28.3535 0.0802391 28.3057 0.0538221C28.258 0.0274052 28.2055 0.0106516 28.1513 0.00451798C28.097 -0.00161562 28.0421 0.00299092 27.9897 0.0180744C27.9373 0.033158 27.8883 0.0584231 27.8456 0.0924274C27.8029 0.126432 27.7674 0.168509 27.741 0.216258L25.654 3.98132C23.8725 3.20023 21.9484 2.79695 20.0032 2.79695C18.058 2.79695 16.1339 3.20023 14.3524 3.98132L12.2655 0.216258C12.2121 0.119255 12.1224 0.0474191 12.0161 0.016553C11.9098 -0.014313 11.7956 -0.00168089 11.6986 0.0516705C11.6016 0.105022 11.5297 0.194722 11.4989 0.301039C11.468 0.407355 11.4806 0.521578 11.534 0.618581L13.5994 4.34492C11.6342 5.31413 9.97389 6.80576 8.80045 8.65625C7.62701 10.5067 6.98578 12.6446 6.94707 14.8355H33.0594C33.0203 12.6442 32.3784 10.506 31.2042 8.65544C30.0299 6.80491 28.3687 5.31353 26.4028 4.34492ZM13.9781 10.057C13.7622 10.057 13.5512 9.99302 13.3718 9.87307C13.1924 9.75312 13.0526 9.58263 12.9701 9.38319C12.8876 9.18375 12.8661 8.96431 12.9084 8.75266C12.9506 8.54101 13.0547 8.34665 13.2075 8.19419C13.3603 8.04173 13.5548 7.93801 13.7666 7.89616C13.9783 7.85432 14.1977 7.87623 14.397 7.95912C14.5963 8.04201 14.7665 8.18215 14.8861 8.36181C15.0057 8.54148 15.0693 8.75258 15.0688 8.96841C15.0683 9.25733 14.9531 9.53423 14.7486 9.73833C14.5441 9.94242 14.267 10.0571 13.9781 10.057ZM26.0306 10.057C25.8147 10.057 25.6037 9.99302 25.4243 9.87307C25.2449 9.75312 25.1051 9.58263 25.0226 9.38319C24.9401 9.18375 24.9186 8.96431 24.9609 8.75266C25.0031 8.54101 25.1072 8.34665 25.26 8.19419C25.4128 8.04173 25.6073 7.93801 25.8191 7.89616C26.0308 7.85432 26.2502 7.87623 26.4495 7.95912C26.6488 8.04201 26.819 8.18215 26.9386 8.36181C27.0582 8.54148 27.1218 8.75258 27.1213 8.96841C27.1208 9.25733 27.0056 9.53423 26.8011 9.73833C26.5966 9.94242 26.3195 10.0571 26.0306 10.057ZM6.94277 34.7924C6.9422 35.2078 7.02364 35.6192 7.1824 36.0031C7.34116 36.3869 7.57414 36.7356 7.86796 37.0293C8.16178 37.3229 8.51067 37.5556 8.89462 37.7141C9.27857 37.8726 9.69004 37.9538 10.1054 37.9529H12.1988V44.4073C12.1988 45.1836 12.5072 45.9281 13.0561 46.4771C13.605 47.026 14.3496 47.3344 15.1259 47.3344C15.9022 47.3344 16.6467 47.026 17.1956 46.4771C17.7445 45.9281 18.0529 45.1836 18.0529 44.4073V37.9529H21.9557V44.4073C21.9557 45.1833 22.264 45.9276 22.8127 46.4763C23.3614 47.025 24.1056 47.3333 24.8817 47.3333C25.6577 47.3333 26.4019 47.025 26.9507 46.4763C27.4994 45.9276 27.8077 45.1833 27.8077 44.4073V37.9529H29.9032C30.318 37.9532 30.7288 37.8717 31.1122 37.7131C31.4955 37.5545 31.8438 37.3218 32.1371 37.0285C32.4304 36.7352 32.6631 36.3869 32.8217 36.0036C32.9803 35.6202 33.0618 35.2094 33.0615 34.7946V15.8682H6.94277V34.7924ZM2.92599 15.3647C2.14995 15.3658 1.40605 15.6748 0.857501 16.2237C0.308956 16.7727 0.000568947 17.5168 0 18.2929V30.4895C-5.72572e-09 30.8737 0.0756827 31.2542 0.222727 31.6092C0.369772 31.9642 0.585299 32.2868 0.857002 32.5585C1.12871 32.8302 1.45126 33.0457 1.80626 33.1928C2.16126 33.3398 2.54174 33.4155 2.92599 33.4155C3.31024 33.4155 3.69072 33.3398 4.04572 33.1928C4.40071 33.0457 4.72327 32.8302 4.99498 32.5585C5.26668 32.2868 5.48221 31.9642 5.62925 31.6092C5.7763 31.2542 5.85198 30.8737 5.85198 30.4895V18.2929C5.85084 17.5172 5.5422 16.7736 4.99372 16.2251C4.44524 15.6766 3.70166 15.368 2.92599 15.3669V15.3647ZM37.074 15.3647C36.298 15.3658 35.5541 15.6748 35.0055 16.2237C34.457 16.7727 34.1486 17.5168 34.148 18.2929V30.4895C34.148 30.8737 34.2237 31.2542 34.3708 31.6092C34.5178 31.9642 34.7333 32.2868 35.005 32.5585C35.2767 32.8302 35.5993 33.0457 35.9543 33.1928C36.3093 33.3398 36.6898 33.4155 37.074 33.4155C37.4583 33.4155 37.8387 33.3398 38.1937 33.1928C38.5487 33.0457 38.8713 32.8302 39.143 32.5585C39.4147 32.2868 39.6302 31.9642 39.7773 31.6092C39.9243 31.2542 40 30.8737 40 30.4895V18.2929C39.9989 17.5172 39.6902 16.7736 39.1417 16.2251C38.5933 15.6766 37.8497 15.368 37.074 15.3669V15.3647Z" fill="#8671ff"/>
</svg>
