<svg width="22" height="22" viewBox="0 0 22 22" fill="none" xmlns="http://www.w3.org/2000/svg">
<path d="M15.2637 21V18.1338C15.3022 17.6576 15.2361 17.1789 15.0699 16.7295C14.9036 16.2801 14.6411 15.8703 14.2996 15.5273C17.5201 15.1778 20.9047 13.9894 20.9047 8.5367C20.9045 7.14239 20.3536 5.80156 19.3663 4.79171C19.8338 3.57185 19.8008 2.2235 19.274 1.02676C19.274 1.02676 18.0637 0.677226 15.2637 2.50478C12.9129 1.88443 10.435 1.88443 8.08422 2.50478C5.28422 0.677226 4.07396 1.02676 4.07396 1.02676C3.54717 2.2235 3.51411 3.57185 3.98166 4.79171C2.98691 5.80905 2.43553 7.162 2.44319 8.56666C2.44319 13.9794 5.82781 15.1678 9.04832 15.5573C8.71088 15.8968 8.45064 16.3017 8.28454 16.7456C8.11843 17.1895 8.05018 17.6625 8.08422 18.1338V21" stroke="black" stroke-width="1.25" stroke-linecap="round" stroke-linejoin="round"/>
<path d="M8.08427 19.0027C5.00735 19.9744 2.44325 19.0027 0.904785 16.0067" stroke="black" stroke-width="1.25" stroke-linecap="round" stroke-linejoin="round"/>
</svg>
