<svg width="20" height="20" viewBox="0 0 20 20" fill="none" xmlns="http://www.w3.org/2000/svg">
<path d="M10 5.6C9.12976 5.6 8.27907 5.85806 7.55549 6.34153C6.83191 6.82501 6.26796 7.5122 5.93493 8.31619C5.6019 9.12019 5.51477 10.0049 5.68455 10.8584C5.85432 11.7119 6.27338 12.4959 6.88873 13.1113C7.50408 13.7266 8.28809 14.1457 9.1416 14.3155C9.99512 14.4852 10.8798 14.3981 11.6838 14.0651C12.4878 13.732 13.175 13.1681 13.6585 12.4445C14.1419 11.7209 14.4 10.8702 14.4 10C14.3987 8.83345 13.9347 7.71507 13.1098 6.89019C12.2849 6.06532 11.1665 5.60132 10 5.6ZM10 13.6C9.28799 13.6 8.59196 13.3889 7.99995 12.9933C7.40793 12.5977 6.94651 12.0355 6.67403 11.3777C6.40156 10.7198 6.33027 9.99601 6.46917 9.29768C6.60808 8.59934 6.95095 7.95789 7.45442 7.45442C7.95789 6.95095 8.59934 6.60808 9.29768 6.46917C9.99601 6.33027 10.7198 6.40156 11.3777 6.67403C12.0355 6.94651 12.5977 7.40793 12.9933 7.99995C13.3889 8.59196 13.6 9.28799 13.6 10C13.6 10.9548 13.2207 11.8705 12.5456 12.5456C11.8705 13.2207 10.9548 13.6 10 13.6ZM14.8 0H5.2C3.82136 0.00158799 2.49964 0.549953 1.5248 1.5248C0.549953 2.49964 0.00158799 3.82136 0 5.2V14.8C0.00158799 16.1786 0.549953 17.5004 1.5248 18.4752C2.49964 19.45 3.82136 19.9984 5.2 20H14.8C16.1786 19.9984 17.5004 19.45 18.4752 18.4752C19.45 17.5004 19.9984 16.1786 20 14.8V5.2C19.9984 3.82136 19.45 2.49964 18.4752 1.5248C17.5004 0.549953 16.1786 0.00158799 14.8 0ZM19.2 14.8C19.1987 15.9665 18.7347 17.0849 17.9098 17.9098C17.0849 18.7347 15.9665 19.1987 14.8 19.2H5.2C4.03345 19.1987 2.91507 18.7347 2.09019 17.9098C1.26532 17.0849 0.801323 15.9665 0.8 14.8V5.2C0.801323 4.03345 1.26532 2.91507 2.09019 2.09019C2.91507 1.26532 4.03345 0.801323 5.2 0.8H14.8C15.9665 0.801323 17.0849 1.26532 17.9098 2.09019C18.7347 2.91507 19.1987 4.03345 19.2 5.2V14.8ZM16 4.8C16 4.95823 15.9531 5.1129 15.8652 5.24446C15.7773 5.37602 15.6523 5.47855 15.5061 5.5391C15.36 5.59965 15.1991 5.6155 15.0439 5.58463C14.8887 5.55376 14.7462 5.47757 14.6343 5.36569C14.5224 5.2538 14.4462 5.11126 14.4154 4.95607C14.3845 4.80089 14.4003 4.64003 14.4609 4.49385C14.5214 4.34767 14.624 4.22273 14.7555 4.13482C14.8871 4.04692 15.0418 4 15.2 4C15.4122 4 15.6157 4.08429 15.7657 4.23431C15.9157 4.38434 16 4.58783 16 4.8Z" fill="black"/>
</svg>
