<svg width="21" height="20" viewBox="0 0 21 20" fill="none" xmlns="http://www.w3.org/2000/svg">
<path d="M5.7487 7.00411H1.82927C1.69933 7.00411 1.57472 7.05677 1.48284 7.15051C1.39096 7.24425 1.33934 7.37138 1.33934 7.50395V19.5002C1.33934 19.6327 1.39096 19.7599 1.48284 19.8536C1.57472 19.9473 1.69933 20 1.82927 20H5.7487C5.87864 20 6.00326 19.9473 6.09514 19.8536C6.18702 19.7599 6.23863 19.6327 6.23863 19.5002V7.50395C6.23863 7.37138 6.18702 7.24425 6.09514 7.15051C6.00326 7.05677 5.87864 7.00411 5.7487 7.00411ZM5.25878 19.0003H2.3192V8.00379H5.25878V19.0003ZM16.0372 7.00411C14.9741 7.00411 13.9403 7.36199 13.0976 8.02279V7.50395C13.0976 7.37138 13.046 7.24425 12.9542 7.15051C12.8623 7.05677 12.7377 7.00411 12.6077 7.00411H8.68828C8.55835 7.00411 8.43373 7.05677 8.34185 7.15051C8.24997 7.24425 8.19835 7.37138 8.19835 7.50395V19.5002C8.19835 19.6327 8.24997 19.7599 8.34185 19.8536C8.43373 19.9473 8.55835 20 8.68828 20H12.6077C12.7377 20 12.8623 19.9473 12.9542 19.8536C13.046 19.7599 13.0976 19.6327 13.0976 19.5002V14.0019C13.0976 13.6042 13.2525 13.2228 13.5281 12.9416C13.8038 12.6604 14.1776 12.5024 14.5674 12.5024C14.9573 12.5024 15.3311 12.6604 15.6067 12.9416C15.8824 13.2228 16.0372 13.6042 16.0372 14.0019V19.5002C16.0372 19.6327 16.0888 19.7599 16.1807 19.8536C16.2726 19.9473 16.3972 20 16.5272 20H20.4466C20.5765 20 20.7011 19.9473 20.793 19.8536C20.8849 19.7599 20.9365 19.6327 20.9365 19.5002V12.0025C20.935 10.6774 20.4183 9.40691 19.4998 8.46986C18.5814 7.53282 17.3361 7.00569 16.0372 7.00411ZM19.9567 19.0003H17.0171V14.0019C17.0171 13.3391 16.759 12.7034 16.2996 12.2347C15.8402 11.766 15.2171 11.5027 14.5674 11.5027C13.9178 11.5027 13.2947 11.766 12.8353 12.2347C12.3759 12.7034 12.1178 13.3391 12.1178 14.0019V19.0003H9.17821V8.00379H12.1178V9.20641C12.1178 9.30994 12.1493 9.41091 12.2079 9.4954C12.2665 9.57988 12.3495 9.64371 12.4452 9.67805C12.5409 9.7124 12.6447 9.71557 12.7423 9.68714C12.8399 9.6587 12.9264 9.60006 12.9899 9.51931C13.493 8.86859 14.1827 8.39429 14.9627 8.16256C15.7427 7.93082 16.5742 7.95319 17.3411 8.22656C18.1081 8.49993 18.7723 9.01066 19.2411 9.68754C19.71 10.3644 19.9601 11.1737 19.9567 12.0025V19.0003ZM4.14957 0.00831838C4.03444 3.95566e-05 3.9189 -0.000628389 3.80368 0.00631892C3.43699 -0.0191364 3.06908 0.0324934 2.72274 0.15801C2.3764 0.283527 2.059 0.480258 1.79022 0.736016C1.52144 0.991774 1.30699 1.30111 1.16016 1.64487C1.01333 1.98863 0.937244 2.35948 0.936616 2.73446C0.933573 3.10552 1.00528 3.47326 1.14729 3.81488C1.2893 4.1565 1.49858 4.46472 1.76216 4.72041C2.02574 4.97611 2.338 5.17384 2.67957 5.30134C3.02114 5.42883 3.38475 5.48338 3.74783 5.46159H3.77527C4.12624 5.48667 4.47861 5.44097 4.81226 5.32711C5.14592 5.21325 5.45432 5.03346 5.71987 4.798C5.98542 4.56253 6.20291 4.27602 6.35993 3.9548C6.51695 3.63359 6.61041 3.28396 6.63499 2.9259C6.65956 2.56783 6.61477 2.20833 6.50317 1.86792C6.39157 1.52752 6.21534 1.21287 5.98455 0.941947C5.75376 0.671025 5.47292 0.449133 5.15808 0.288941C4.84323 0.128748 4.50054 0.0333929 4.14957 0.00831838ZM4.11528 4.46491C4.00213 4.47541 3.88823 4.4744 3.77527 4.46191H3.74783C3.51201 4.48 3.27508 4.44772 3.05217 4.36713C2.82926 4.28654 2.62527 4.15942 2.45323 3.99388C2.28118 3.82834 2.14486 3.62802 2.05296 3.40571C1.96107 3.18339 1.91562 2.94397 1.91952 2.70273C1.92341 2.46149 1.97658 2.22373 2.0756 2.00463C2.17463 1.78552 2.31736 1.5899 2.49466 1.43023C2.67196 1.27057 2.87995 1.15038 3.10534 1.07733C3.33073 1.00429 3.56857 0.979995 3.80368 1.006C4.25327 0.963847 4.70085 1.10563 5.04797 1.40015C5.39509 1.69468 5.61332 2.11783 5.65464 2.57651C5.69596 3.03519 5.55699 3.49183 5.2683 3.84597C4.97962 4.20011 4.56486 4.42275 4.11528 4.46491Z" fill="black"/>
</svg>
